<mxfile host="app.diagrams.net" modified="2021-10-19T05:43:33.180Z" agent="5.0 (Macintosh; Intel Mac OS X 10_15_7) AppleWebKit/537.36 (KHTML, like Gecko) Chrome/94.0.4606.81 Safari/537.36" etag="_6TMXLhqE1h0sGsiXFXj" version="15.5.5" type="github">
  <diagram id="cqWRlKljhe7G8qdlB3Ew" name="Page-1">
    <mxGraphModel dx="1186" dy="503" grid="1" gridSize="10" guides="1" tooltips="1" connect="1" arrows="1" fold="1" page="1" pageScale="1" pageWidth="1654" pageHeight="1169" math="0" shadow="0">
      <root>
        <mxCell id="0" />
        <mxCell id="1" parent="0" />
        <mxCell id="z9hn8gbh2BOrePjzLRXn-26" style="edgeStyle=orthogonalEdgeStyle;rounded=0;orthogonalLoop=1;jettySize=auto;html=1;entryX=0;entryY=0.5;entryDx=0;entryDy=0;" edge="1" parent="1" source="z9hn8gbh2BOrePjzLRXn-14" target="z9hn8gbh2BOrePjzLRXn-6">
          <mxGeometry relative="1" as="geometry">
            <Array as="points">
              <mxPoint x="360" y="275" />
            </Array>
          </mxGeometry>
        </mxCell>
        <mxCell id="z9hn8gbh2BOrePjzLRXn-14" value="CheckCredit" style="rounded=1;whiteSpace=wrap;html=1;" vertex="1" parent="1">
          <mxGeometry x="270" y="140" width="170" height="100" as="geometry" />
        </mxCell>
        <mxCell id="z9hn8gbh2BOrePjzLRXn-1" value="IsIdValid" style="rounded=1;whiteSpace=wrap;html=1;" vertex="1" parent="1">
          <mxGeometry x="565" y="40" width="145" height="100" as="geometry" />
        </mxCell>
        <mxCell id="z9hn8gbh2BOrePjzLRXn-5" value="Bool valid" style="text;html=1;strokeColor=none;fillColor=none;align=center;verticalAlign=middle;whiteSpace=wrap;rounded=0;" vertex="1" parent="1">
          <mxGeometry x="440" y="110" width="80" height="30" as="geometry" />
        </mxCell>
        <mxCell id="z9hn8gbh2BOrePjzLRXn-6" value="IsGoodCredit" style="rounded=1;whiteSpace=wrap;html=1;" vertex="1" parent="1">
          <mxGeometry x="560" y="230" width="150" height="90" as="geometry" />
        </mxCell>
        <mxCell id="z9hn8gbh2BOrePjzLRXn-29" value="" style="endArrow=classic;html=1;rounded=0;" edge="1" parent="1">
          <mxGeometry width="50" height="50" relative="1" as="geometry">
            <mxPoint x="180" y="190" as="sourcePoint" />
            <mxPoint x="270" y="190" as="targetPoint" />
          </mxGeometry>
        </mxCell>
        <mxCell id="z9hn8gbh2BOrePjzLRXn-30" value="String id" style="text;html=1;strokeColor=none;fillColor=none;align=center;verticalAlign=middle;whiteSpace=wrap;rounded=0;" vertex="1" parent="1">
          <mxGeometry x="110" y="175" width="60" height="30" as="geometry" />
        </mxCell>
        <mxCell id="z9hn8gbh2BOrePjzLRXn-31" value="String id" style="text;html=1;strokeColor=none;fillColor=none;align=center;verticalAlign=middle;whiteSpace=wrap;rounded=0;" vertex="1" parent="1">
          <mxGeometry x="430" y="50" width="60" height="30" as="geometry" />
        </mxCell>
        <mxCell id="z9hn8gbh2BOrePjzLRXn-32" value="String id" style="text;html=1;strokeColor=none;fillColor=none;align=center;verticalAlign=middle;whiteSpace=wrap;rounded=0;" vertex="1" parent="1">
          <mxGeometry x="430" y="280" width="60" height="30" as="geometry" />
        </mxCell>
        <mxCell id="z9hn8gbh2BOrePjzLRXn-34" value="" style="endArrow=classic;html=1;rounded=0;" edge="1" parent="1">
          <mxGeometry width="50" height="50" relative="1" as="geometry">
            <mxPoint x="560" y="110" as="sourcePoint" />
            <mxPoint x="420" y="140" as="targetPoint" />
            <Array as="points">
              <mxPoint x="420" y="110" />
            </Array>
          </mxGeometry>
        </mxCell>
        <mxCell id="z9hn8gbh2BOrePjzLRXn-35" value="" style="endArrow=classic;html=1;rounded=0;exitX=-0.033;exitY=0.356;exitDx=0;exitDy=0;exitPerimeter=0;entryX=0.894;entryY=1.02;entryDx=0;entryDy=0;entryPerimeter=0;" edge="1" parent="1" source="z9hn8gbh2BOrePjzLRXn-6" target="z9hn8gbh2BOrePjzLRXn-14">
          <mxGeometry width="50" height="50" relative="1" as="geometry">
            <mxPoint x="650" y="270" as="sourcePoint" />
            <mxPoint x="400" y="260" as="targetPoint" />
            <Array as="points">
              <mxPoint x="422" y="262" />
            </Array>
          </mxGeometry>
        </mxCell>
        <mxCell id="z9hn8gbh2BOrePjzLRXn-37" value="Bool goodCredit" style="text;html=1;strokeColor=none;fillColor=none;align=center;verticalAlign=middle;whiteSpace=wrap;rounded=0;" vertex="1" parent="1">
          <mxGeometry x="450" y="230" width="100" height="30" as="geometry" />
        </mxCell>
        <mxCell id="z9hn8gbh2BOrePjzLRXn-40" value="" style="endArrow=classic;html=1;rounded=0;exitX=0.529;exitY=0.006;exitDx=0;exitDy=0;exitPerimeter=0;" edge="1" parent="1" source="z9hn8gbh2BOrePjzLRXn-14">
          <mxGeometry width="50" height="50" relative="1" as="geometry">
            <mxPoint x="330" y="80" as="sourcePoint" />
            <mxPoint x="565" y="80" as="targetPoint" />
            <Array as="points">
              <mxPoint x="360" y="80" />
            </Array>
          </mxGeometry>
        </mxCell>
        <mxCell id="z9hn8gbh2BOrePjzLRXn-41" value="" style="endArrow=classic;html=1;rounded=0;" edge="1" parent="1" target="z9hn8gbh2BOrePjzLRXn-42">
          <mxGeometry width="50" height="50" relative="1" as="geometry">
            <mxPoint x="440" y="190" as="sourcePoint" />
            <mxPoint x="830" y="190" as="targetPoint" />
          </mxGeometry>
        </mxCell>
        <mxCell id="z9hn8gbh2BOrePjzLRXn-42" value="Bool result" style="text;html=1;strokeColor=none;fillColor=none;align=center;verticalAlign=middle;whiteSpace=wrap;rounded=0;" vertex="1" parent="1">
          <mxGeometry x="800" y="175" width="100" height="30" as="geometry" />
        </mxCell>
      </root>
    </mxGraphModel>
  </diagram>
</mxfile>
